HIERARCHY
ROOT Hips
{
	OFFSET -0.001795 -0.223333 0.028219
	CHANNELS 6 Xposition Yposition Zposition Zrotation Yrotation Xrotation 
	JOINT LeftUpLeg
	{
		OFFSET 0.069520 -0.091406 -0.006815
		CHANNELS 3 Zrotation Yrotation Xrotation
		JOINT LeftLeg
		{
			OFFSET 0.034277 -0.375199 -0.004496
			CHANNELS 3 Zrotation Yrotation Xrotation
			JOINT LeftFoot
			{
				OFFSET -0.013596 -0.397961 -0.043693
				CHANNELS 3 Zrotation Yrotation Xrotation
				JOINT LeftToe
				{
					OFFSET 0.026358 -0.055791 0.119288
					CHANNELS 3 Zrotation Yrotation Xrotation
					End Site
					{
						OFFSET 0.000000 0.000000 0.000000
					}
				}
			}
		}
	}
	JOINT RightUpLeg
	{
		OFFSET -0.067670 -0.090522 -0.004320
		CHANNELS 3 Zrotation Yrotation Xrotation
		JOINT RightLeg
		{
			OFFSET -0.038290 -0.382569 -0.008850
			CHANNELS 3 Zrotation Yrotation Xrotation
			JOINT RightFoot
			{
				OFFSET 0.015774 -0.398415 -0.042312
				CHANNELS 3 Zrotation Yrotation Xrotation
				JOINT RightToe
				{
					OFFSET -0.025372 -0.048144 0.123348
					CHANNELS 3 Zrotation Yrotation Xrotation
					End Site
					{
						OFFSET 0.000000 0.000000 0.000000
					}
				}
			}
		}
	}
	JOINT Spine
	{
		OFFSET -0.002533 0.108963 -0.026696
		CHANNELS 3 Zrotation Yrotation Xrotation
		JOINT Spine1
		{
			OFFSET 0.005487 0.135180 0.001092
			CHANNELS 3 Zrotation Yrotation Xrotation
			JOINT Spine2
			{
				OFFSET 0.001457 0.052922 0.025425
				CHANNELS 3 Zrotation Yrotation Xrotation
				JOINT Neck
				{
					OFFSET -0.002778 0.213870 -0.042857
					CHANNELS 3 Zrotation Yrotation Xrotation
					JOINT Head
					{
						OFFSET 0.005152 0.064970 0.051349
						CHANNELS 3 Zrotation Yrotation Xrotation
						End Site
						{
							OFFSET 0.000000 0.000000 0.000000
						}
					}
				}
				JOINT LeftShoulder
				{
					OFFSET 0.078845 0.121749 -0.034090
					CHANNELS 3 Zrotation Yrotation Xrotation
					JOINT LeftArm
					{
						OFFSET 0.090977 0.030469 -0.008868
						CHANNELS 3 Zrotation Yrotation Xrotation
						JOINT LeftForeArm
						{
							OFFSET 0.259612 -0.012772 -0.027456
							CHANNELS 3 Zrotation Yrotation Xrotation
							JOINT LeftHand
							{
								OFFSET 0.249234 0.008986 -0.001171
								CHANNELS 3 Zrotation Yrotation Xrotation
								End Site
								{
									OFFSET 0.000000 0.000000 0.000000
								}
							}
						}
					}
				}
				JOINT RightShoulder
				{
					OFFSET -0.081759 0.118833 -0.038615
					CHANNELS 3 Zrotation Yrotation Xrotation
					JOINT RightArm
					{
						OFFSET -0.096012 0.032551 -0.009143
						CHANNELS 3 Zrotation Yrotation Xrotation
						JOINT RightForeArm
						{
							OFFSET -0.253742 -0.013329 -0.021401
							CHANNELS 3 Zrotation Yrotation Xrotation
							JOINT RightHand
							{
								OFFSET -0.255298 0.007772 -0.005559
								CHANNELS 3 Zrotation Yrotation Xrotation
								End Site
								{
									OFFSET 0.000000 0.000000 0.000000
								}
							}
						}
					}
				}
			}
		}
	}
}
MOTION
Frames: 17
Frame Time: 0.050000
-0.005317 0.939904 -0.002218 -4.002642 4.757834 3.291611 8.418296 -0.428210 -8.526908 -1.872712 -0.169034 13.542046 6.167481 13.445991 3.519790 0.000000 0.000000 0.000000 -1.439290 1.250523 -14.525496 -3.938533 1.652980 18.892520 1.091495 0.927668 3.942064 0.000000 0.000000 0.000000 6.427213 0.302069 -4.766670 -0.481975 0.357717 -3.660948 -4.612137 4.521332 11.826213 9.832837 -3.363408 -20.445960 0.000000 0.000000 0.000000 -3.370571 2.204705 -1.398900 -53.408154 -23.184172 2.749567 119.930722 -40.553123 -63.743970 0.000000 0.000000 0.000000 1.293468 -7.670546 -2.887767 63.527457 19.660539 5.650468 -162.343010 49.984138 -125.585280 0.000000 0.000000 0.000000 
-0.005565 0.940359 -0.002333 -4.156445 4.415825 3.656068 8.679888 -0.421003 -8.688121 -1.942317 -0.133519 13.229716 6.286985 13.698576 3.681906 0.000000 0.000000 0.000000 -1.247147 1.290456 -14.683137 -3.931964 1.628900 18.279967 1.174336 1.084789 3.985922 0.000000 0.000000 0.000000 6.351834 0.314757 -4.978047 -0.529490 0.374782 -3.679445 -4.603273 4.241610 11.734776 10.079307 -3.495517 -20.807812 0.000000 0.000000 0.000000 -3.224096 2.915338 -1.606338 -55.267543 -22.987474 2.829103 121.227634 -41.490129 -65.909084 0.000000 0.000000 0.000000 1.000732 -7.960101 -2.974846 65.073091 19.111913 5.557599 -163.910674 50.337095 -129.428583 0.000000 0.000000 0.000000 
-0.005989 0.941150 -0.002479 -4.334257 4.513806 3.835032 8.925613 -0.421690 -8.921903 -1.995267 -0.113818 12.890487 6.149442 13.486527 3.854177 0.000000 0.000000 0.000000 -1.046607 1.308398 -14.649909 -3.850067 1.576483 17.834390 1.060744 0.691917 4.290047 0.000000 0.000000 0.000000 6.307775 0.304356 -4.922660 -0.436157 0.341371 -3.878072 -4.788788 3.851494 11.805251 10.411934 -3.607200 -21.451850 0.000000 0.000000 0.000000 -3.041332 3.418064 -1.738908 -56.923548 -23.243794 3.086553 123.422443 -42.910723 -69.825392 0.000000 0.000000 0.000000 1.038828 -8.735385 -3.267262 66.352308 18.806565 5.541197 -164.769743 51.243893 -132.193833 0.000000 0.000000 0.000000 
-0.006392 0.942044 -0.002630 -4.672569 4.509932 3.979323 9.366084 -0.410873 -9.150148 -1.907778 -0.129977 12.835777 6.052709 13.299425 3.777590 0.000000 0.000000 0.000000 -0.669147 1.360092 -14.778951 -3.726114 1.512693 17.303469 1.010964 0.496529 4.477236 0.000000 0.000000 0.000000 6.279699 0.264978 -4.530689 -0.358431 0.322839 -4.336090 -4.798390 3.487657 11.927254 10.733232 -3.721509 -22.074888 0.000000 0.000000 0.000000 -2.264410 3.847592 -1.728138 -58.632135 -24.154977 3.680033 124.970207 -43.732703 -72.274206 0.000000 0.000000 0.000000 0.674083 -9.438265 -3.496051 67.666861 18.343053 5.434797 -164.951798 52.062590 -133.570785 0.000000 0.000000 0.000000 
-0.006807 0.942882 -0.002861 -4.828903 4.538018 4.120535 9.634616 -0.407432 -9.465337 -2.092527 -0.090847 12.833405 5.977951 13.198025 3.924309 0.000000 0.000000 0.000000 -0.471861 1.383048 -14.802797 -3.709532 1.488151 16.968469 0.930695 0.189229 4.769811 0.000000 0.000000 0.000000 6.207005 0.243338 -4.335653 -0.181638 0.252843 -4.497187 -4.915827 3.221851 11.967337 10.952901 -3.753718 -22.703070 0.000000 0.000000 0.000000 -1.362690 3.858578 -1.553648 -59.611864 -25.450468 4.446661 125.740895 -43.577253 -72.693158 0.000000 0.000000 0.000000 0.797477 -10.043717 -3.730538 68.560455 18.107792 5.385559 -164.430417 52.843206 -133.439416 0.000000 0.000000 0.000000 
-0.007141 0.943791 -0.003062 -4.803823 4.683143 4.314585 9.639495 -0.417175 -9.611293 -2.013865 -0.111982 12.875692 5.911263 13.125753 4.140772 0.000000 0.000000 0.000000 -0.280647 1.428869 -15.121324 -3.782524 1.506567 17.040562 0.856345 0.050332 4.717001 0.000000 0.000000 0.000000 6.061118 0.202473 -3.948216 -0.071898 0.221474 -4.896894 -4.945959 2.833402 12.100199 11.006229 -3.577418 -23.970659 0.000000 0.000000 0.000000 -0.307369 3.535493 -1.245990 -60.291743 -26.897955 5.304291 126.327982 -42.699670 -71.866214 0.000000 0.000000 0.000000 0.454533 -10.321957 -3.796254 69.252221 17.960081 5.352494 -163.732169 53.449045 -132.846543 0.000000 0.000000 0.000000 
-0.007262 0.944698 -0.003256 -4.915172 4.592550 4.424535 9.808877 -0.409763 -9.622662 -2.145136 -0.076514 12.706335 5.993583 13.343204 4.487284 0.000000 0.000000 0.000000 -0.077166 1.450162 -15.095852 -3.762324 1.484416 16.694146 0.879604 -0.016935 4.992603 0.000000 0.000000 0.000000 5.960333 0.165610 -3.557891 0.153504 0.126338 -4.934727 -4.917396 2.617200 12.061463 11.108002 -3.528107 -24.695522 0.000000 0.000000 0.000000 0.321027 3.464917 -1.110811 -60.358089 -27.995059 5.943999 126.750042 -42.076671 -71.276019 0.000000 0.000000 0.000000 0.426566 -10.210598 -3.747515 69.051874 18.416134 5.542530 -161.608380 53.864759 -129.516293 0.000000 0.000000 0.000000 
-0.007196 0.945641 -0.003368 -4.869902 4.521776 4.611881 9.467232 -0.429292 -9.828385 -1.997557 -0.104836 12.676492 6.025962 13.406899 4.505750 0.000000 0.000000 0.000000 -0.051327 1.440879 -14.946206 -3.874810 1.480496 16.091436 0.933327 0.045441 5.127146 0.000000 0.000000 0.000000 6.093379 0.147656 -3.397461 0.067269 0.157089 -4.821007 -4.886715 2.320055 12.007485 11.173791 -3.353918 -26.040268 0.000000 0.000000 0.000000 0.832755 2.823400 -0.816917 -59.609494 -28.892748 6.384071 126.255355 -40.744358 -68.637622 0.000000 0.000000 0.000000 0.358182 -9.730394 -3.557301 68.745439 19.543191 6.123103 -159.122112 54.492706 -125.949971 0.000000 0.000000 0.000000 
-0.007027 0.946100 -0.003585 -4.758685 4.109305 4.705365 9.411384 -0.418341 -9.541268 -2.266309 -0.025754 12.231565 6.237698 13.762806 4.428851 0.000000 0.000000 0.000000 -0.179823 1.428338 -14.888469 -3.791197 1.449353 15.720475 1.123426 0.505950 4.994442 0.000000 0.000000 0.000000 6.133387 0.129070 -3.188659 0.033983 0.164113 -4.773964 -4.856010 2.380426 12.086568 10.952878 -3.195382 -26.416178 0.000000 0.000000 0.000000 1.522339 2.025066 -0.454122 -58.476219 -30.074547 6.849652 125.660523 -39.655542 -66.338580 0.000000 0.000000 0.000000 0.255584 -9.059627 -3.297564 67.448472 21.131364 6.825690 -154.940235 54.188789 -118.567840 0.000000 0.000000 0.000000 
-0.006949 0.946844 -0.004122 -4.592511 3.678675 4.766128 8.894395 -0.427799 -9.333838 -2.072817 -0.044053 11.772946 6.290637 13.891216 4.673505 0.000000 0.000000 0.000000 -0.166690 1.451636 -15.067475 -4.144198 1.549047 15.704499 1.160431 0.582724 4.940388 0.000000 0.000000 0.000000 6.198745 0.105596 -2.923395 0.066793 0.131311 -4.386275 -5.005653 2.330719 11.847331 10.864349 -2.985086 -27.477426 0.000000 0.000000 0.000000 2.113970 0.992172 -0.046203 -57.048624 -31.556408 7.445346 124.423907 -38.077865 -62.678921 0.000000 0.000000 0.000000 -0.083580 -7.868737 -2.825330 65.849105 23.692152 8.058625 -149.748526 53.573650 -109.650010 0.000000 0.000000 0.000000 
-0.007312 0.947557 -0.005274 -4.470727 3.061891 4.680388 8.614892 -0.417330 -9.006770 -2.005962 -0.038672 11.563050 6.546951 14.322818 4.597724 0.000000 0.000000 0.000000 -0.025402 1.493102 -15.260789 -4.362157 1.639187 15.963784 1.315390 0.826980 5.080571 0.000000 0.000000 0.000000 6.264016 0.078378 -2.577860 -0.088890 0.188619 -4.329235 -4.808752 2.621957 11.934718 10.520082 -2.763860 -27.817419 0.000000 0.000000 0.000000 3.280345 -0.857332 0.669022 -55.059127 -33.741605 8.161366 121.995511 -35.616059 -56.756580 0.000000 0.000000 0.000000 -0.785251 -6.165606 -2.156921 63.465550 26.943743 9.481175 -143.366214 52.437552 -98.494621 0.000000 0.000000 0.000000 
-0.008163 0.948042 -0.006953 -4.470466 2.305128 4.716549 8.554038 -0.398715 -8.830052 -2.073356 -0.007199 11.547218 6.713336 14.600890 4.543333 0.000000 0.000000 0.000000 0.379148 1.563892 -15.441746 -4.893842 1.803061 16.075678 1.363546 1.021714 4.781219 0.000000 0.000000 0.000000 6.651738 0.041315 -2.187154 -0.004147 0.142386 -4.284484 -4.937633 2.959438 12.004297 10.098202 -2.394770 -28.815786 0.000000 0.000000 0.000000 4.454420 -2.150138 1.177757 -53.243082 -35.807019 8.773132 120.035544 -32.754184 -50.878637 0.000000 0.000000 0.000000 -1.669084 -4.494561 -1.512879 61.128081 31.477861 11.571872 -137.174669 50.692157 -87.497441 0.000000 0.000000 0.000000 
-0.009277 0.948409 -0.008495 -4.516525 1.514581 4.418926 8.456707 -0.375408 -8.668171 -1.988383 -0.018061 12.066935 6.883777 14.868713 4.361583 0.000000 0.000000 0.000000 0.661167 1.611749 -15.507691 -5.155705 1.930108 16.533947 1.744240 1.945825 4.578347 0.000000 0.000000 0.000000 6.928167 -0.015053 -1.535507 -0.230948 0.227118 -4.153725 -4.836360 3.608875 11.917929 10.257879 -2.434755 -28.876363 0.000000 0.000000 0.000000 6.057634 -4.042331 1.873383 -51.442815 -37.671295 9.170696 118.159848 -29.542947 -44.994964 0.000000 0.000000 0.000000 -2.911101 -3.301598 -1.051119 58.988837 35.886241 13.619987 -131.682379 48.383194 -77.164378 0.000000 0.000000 0.000000 
-0.010190 0.948706 -0.009193 -4.612496 0.501631 4.175463 8.499417 -0.338615 -8.329072 -2.163798 0.040115 12.293420 7.296855 15.627997 4.636176 0.000000 0.000000 0.000000 0.926656 1.643515 -15.411990 -5.488875 2.057318 16.663768 2.146243 2.708251 4.766241 0.000000 0.000000 0.000000 7.252607 -0.021422 -1.398863 -0.350070 0.251058 -3.462690 -4.863265 4.154406 11.631726 10.197181 -2.428734 -28.693479 0.000000 0.000000 0.000000 6.883650 -4.911056 2.176150 -50.089243 -38.650874 9.287842 116.725845 -27.421621 -41.033278 0.000000 0.000000 0.000000 -3.289137 -2.248461 -0.685558 56.558559 39.640757 14.975421 -127.444782 46.608482 -69.846681 0.000000 0.000000 0.000000 
-0.010802 0.949082 -0.009190 -4.489330 -0.073913 3.880677 8.294137 -0.322160 -7.918946 -2.053036 0.025245 12.608985 7.459351 15.926888 4.813966 0.000000 0.000000 0.000000 0.938951 1.620630 -15.120535 -5.748936 2.138001 16.626626 2.284933 3.088293 4.588538 0.000000 0.000000 0.000000 7.415427 -0.055110 -0.996743 -0.425515 0.287652 -3.866582 -5.025358 4.721071 12.145232 10.400788 -2.540348 -28.542139 0.000000 0.000000 0.000000 7.188957 -5.734175 2.424598 -49.220312 -38.707402 8.986395 116.641112 -26.761695 -40.193566 0.000000 0.000000 0.000000 -3.624112 -1.750975 -0.527893 54.916950 41.667815 15.537400 -125.414607 45.544552 -65.961246 0.000000 0.000000 0.000000 
-0.011175 0.949228 -0.009048 -4.258116 -0.414359 3.677819 8.113203 -0.313889 -7.649506 -2.052145 0.033646 12.614058 7.859418 16.677923 5.386603 0.000000 0.000000 0.000000 1.011170 1.628339 -15.087815 -6.155175 2.279684 16.895716 2.525623 3.648189 4.550190 0.000000 0.000000 0.000000 7.548202 -0.052809 -0.964043 -0.684526 0.389871 -3.494299 -5.046915 4.782960 12.286559 10.306734 -2.540289 -28.409318 0.000000 0.000000 0.000000 6.967506 -5.977160 2.462077 -48.274898 -38.616387 8.723304 116.513930 -27.224976 -40.707242 0.000000 0.000000 0.000000 -3.870352 -1.495908 -0.434317 53.551447 42.425730 15.387608 -125.336521 45.747840 -66.308543 0.000000 0.000000 0.000000 
-0.011507 0.948935 -0.009303 -4.195339 -0.150223 3.585365 8.139522 -0.323333 -7.977421 -2.122079 0.029166 13.468517 7.922052 16.786616 5.321942 0.000000 0.000000 0.000000 0.714132 1.633066 -15.437620 -6.081918 2.335458 17.734108 2.484340 3.639309 4.429990 0.000000 0.000000 0.000000 7.494902 -0.054073 -0.940709 -0.566893 0.343444 -3.609253 -5.044691 4.863505 12.439393 10.091731 -2.404848 -28.422667 0.000000 0.000000 0.000000 6.824227 -6.299678 2.549606 -47.444013 -38.095680 8.244990 116.586555 -28.491846 -42.717740 0.000000 0.000000 0.000000 -3.800140 -1.396670 -0.415785 52.143451 42.250365 14.770802 -124.855325 46.736755 -67.052152 0.000000 0.000000 0.000000 
